<svg xmlns="http://www.w3.org/2000/svg" viewBox="0 0 752 222" width="752" height="222">
  <defs>
    <linearGradient id="usai-arm" gradientUnits="userSpaceOnUse" x1="143.66" y1="40.22" x2="210.67" y2="144.59"><stop offset="0.00" stop-color="#177971"/><stop offset="0.20" stop-color="#23867B"/><stop offset="0.40" stop-color="#31978A"/><stop offset="0.60" stop-color="#43AC9B"/><stop offset="0.80" stop-color="#4FBBA7"/><stop offset="1.00" stop-color="#4EBFAA"/></linearGradient>
  </defs>
  <g id="icon">
    <path fill="#0C6A64" d="M95.88 212.24C91.06 211.84 85.41 211.05 83.25 210.49C82.77 210.36 81.25 209.98 79.88 209.64C63.85 205.70 48.01 196.72 36.50 185.05C32.51 181.00 28.17 175.77 26.12 172.56C25.99 172.34 25.30 171.30 24.60 170.25C23.90 169.20 22.89 167.58 22.35 166.65C21.81 165.71 21.16 164.60 20.90 164.16C20.30 163.15 18.78 160.11 17.75 157.88C17.31 156.91 16.73 155.66 16.47 155.10C16.21 154.53 16.00 153.97 15.99 153.85C15.99 153.73 15.77 153.18 15.50 152.62C15.23 152.07 15.01 151.48 15.01 151.30C15.00 151.13 14.77 150.54 14.50 150.00C14.22 149.46 14.00 148.82 14.00 148.58C14.00 148.33 13.79 147.57 13.52 146.88C13.09 145.73 12.54 143.89 11.76 141.00C11.59 140.38 11.31 138.97 11.13 137.88C10.94 136.78 10.68 135.59 10.55 135.25C10.42 134.91 10.23 133.89 10.14 133.00C10.04 132.11 9.80 130.10 9.61 128.55C9.31 126.18 9.25 116.91 9.25 71.00C9.25 39.33 9.34 16.22 9.47 16.14C9.59 16.07 9.77 15.69 9.86 15.31C10.19 13.95 11.68 12.09 13.25 11.06C15.99 9.27 19.99 9.13 23.21 10.71C25.85 12.01 41.57 20.10 42.25 20.51C42.57 20.70 44.04 21.42 46.70 22.70C47.07 22.88 47.54 23.12 47.75 23.24C47.96 23.36 48.86 23.82 49.75 24.26C50.64 24.69 51.54 25.15 51.75 25.27C51.96 25.38 53.42 26.13 55.00 26.92C56.58 27.70 58.02 28.50 58.21 28.67C58.39 28.85 58.62 29.00 58.73 29.00C59.13 29.00 61.43 31.43 62.28 32.75C63.25 34.26 63.67 35.13 64.54 37.38L65.12 38.88L65.27 85.88C65.43 135.95 65.40 134.79 66.60 138.33C66.82 138.98 67.00 139.68 67.00 139.88C67.00 140.64 69.65 146.88 70.83 148.88C73.32 153.12 77.79 158.35 80.88 160.63C81.42 161.04 81.93 161.43 82.00 161.51C82.44 161.98 86.21 164.28 87.88 165.09C91.23 166.71 91.39 166.78 92.27 167.00C92.74 167.12 93.63 167.38 94.25 167.58C101.27 169.80 109.71 169.99 119.40 168.16C120.51 167.95 121.71 167.64 122.07 167.48C123.35 166.90 123.89 167.75 123.16 169.20C122.46 170.56 121.29 174.45 120.76 177.14C119.84 181.87 120.28 188.50 121.84 193.08C123.52 198.00 125.58 201.77 128.67 205.55C130.28 207.52 130.49 207.99 129.94 208.45C128.91 209.30 122.90 210.92 118.25 211.61C113.94 212.24 107.43 212.75 104.17 212.72C102.50 212.70 98.76 212.49 95.88 212.24Z"/>
    <path fill="url(#usai-arm)" d="M181.57 174.44C181.43 174.27 181.24 173.80 181.15 173.41C180.69 171.48 177.94 166.65 176.01 164.38C172.32 160.03 166.96 156.26 162.13 154.63C157.11 152.93 150.13 152.46 145.42 153.51C142.22 154.22 139.79 154.96 138.68 155.54C137.74 156.04 137.00 156.02 137.00 155.50C137.00 155.35 137.43 154.64 137.95 153.93C138.97 152.54 141.30 147.92 142.33 145.25C143.16 143.10 143.64 141.34 144.45 137.54L145.12 134.38L145.17 88.13C145.22 45.89 145.26 41.75 145.64 40.26C146.17 38.20 146.97 36.07 147.55 35.21C147.80 34.85 148.00 34.45 148.01 34.34C148.02 33.93 150.39 31.28 151.75 30.17C152.51 29.55 153.91 28.63 154.88 28.12C155.84 27.61 157.81 26.56 159.25 25.79C162.86 23.87 165.56 22.45 167.62 21.37C168.59 20.86 170.28 19.96 171.38 19.37C173.93 17.98 176.50 16.65 182.25 13.70C184.79 12.40 187.42 11.02 188.10 10.64C190.52 9.27 193.24 8.83 195.81 9.39C198.75 10.04 200.98 11.87 202.33 14.73L203.08 16.33L202.91 70.07C202.81 104.47 202.65 124.68 202.49 126.22C201.57 134.69 199.24 143.95 195.87 152.50C193.56 158.39 189.29 166.00 185.64 170.75C184.85 171.78 183.85 173.10 183.43 173.69C182.65 174.76 182.02 175.01 181.57 174.44Z"/>
    <path fill="#0C6A64" d="M150.50 201.85C144.79 200.82 141.20 198.90 138.25 195.29C137.04 193.81 136.86 193.53 135.86 191.53C133.57 186.97 133.71 180.41 136.20 175.62C136.84 174.39 137.78 173.21 139.37 171.62C142.33 168.66 145.00 167.28 149.07 166.60C151.66 166.16 151.86 166.16 154.57 166.60C156.11 166.85 157.80 167.26 158.32 167.53C158.84 167.79 159.40 168.00 159.57 168.00C160.16 168.00 163.39 170.26 164.78 171.65C167.73 174.56 169.75 179.52 169.75 183.84C169.75 193.58 162.64 201.22 153.00 201.84C151.97 201.91 150.84 201.91 150.50 201.85Z"/>
  </g>
  <path id="wordmark" fill="#0C6A64" d="M297.73 162.66C297.67 162.60 295.82 162.37 293.62 162.13C291.43 161.90 289.01 161.56 288.25 161.38C287.49 161.20 286.37 160.98 285.75 160.89C285.13 160.80 284.12 160.56 283.50 160.37C282.88 160.17 281.76 159.83 281.00 159.61C279.37 159.13 276.77 158.16 275.38 157.51C272.81 156.31 271.06 155.43 270.38 154.99C269.96 154.73 269.32 154.34 268.94 154.13C267.44 153.28 264.03 150.85 262.25 149.37C260.57 147.97 257.08 144.36 255.66 142.57C253.20 139.46 250.00 133.38 248.77 129.50C248.35 128.19 247.79 125.79 247.51 124.16C247.02 121.28 247.00 120.21 247.00 89.86L247.00 58.54L247.54 57.14C248.51 54.61 250.92 52.47 253.73 51.65C254.87 51.31 256.67 51.25 264.79 51.25L274.50 51.25L276.15 52.03C279.02 53.39 280.70 55.30 281.39 58.00C281.74 59.36 281.77 62.62 281.67 87.33C281.60 102.68 281.65 115.89 281.77 116.84C282.60 123.33 286.51 128.09 293.84 131.51C298.79 133.82 303.68 134.49 315.50 134.49C326.12 134.49 331.55 133.92 336.25 132.29C340.92 130.68 345.18 127.86 347.56 124.79C348.77 123.24 349.20 122.46 350.20 120.00L350.86 118.38L350.99 88.00C351.12 58.77 351.14 57.59 351.60 56.75C352.93 54.30 354.65 52.85 357.45 51.83C358.99 51.26 359.23 51.25 368.35 51.25C376.85 51.25 377.79 51.29 379.02 51.72C382.04 52.78 383.71 54.16 384.78 56.50C385.06 57.12 385.40 57.85 385.53 58.12C385.67 58.43 385.73 71.21 385.69 90.62C385.61 125.01 385.64 124.00 384.34 128.25C383.41 131.30 381.84 134.95 380.30 137.62C379.22 139.51 375.97 143.57 373.37 146.29C370.98 148.79 364.39 154.00 363.62 154.00C363.51 154.00 363.23 154.16 363.01 154.36C362.44 154.88 356.21 158.00 355.75 158.00C355.53 158.00 355.14 158.15 354.87 158.33C354.31 158.70 351.90 159.59 349.93 160.15C346.23 161.21 343.65 161.63 335.75 162.50C333.57 162.73 297.98 162.88 297.73 162.66ZM541.00 162.13C537.87 161.46 535.04 159.20 533.66 156.27C532.95 154.76 532.88 154.42 532.90 152.12C532.92 149.08 533.26 148.16 535.95 144.00C537.74 141.24 538.29 140.37 539.59 138.31C539.92 137.80 540.80 136.42 541.55 135.25C542.30 134.08 543.34 132.45 543.87 131.62C545.73 128.69 545.94 128.35 547.40 126.13C549.04 123.62 549.14 123.47 549.94 122.10C550.26 121.56 550.73 120.79 551.00 120.38C551.27 119.96 551.67 119.30 551.90 118.89C552.12 118.49 552.69 117.62 553.15 116.96C553.62 116.30 554.00 115.69 554.00 115.62C554.00 115.54 554.21 115.17 554.47 114.80C555.68 113.04 558.00 109.47 558.00 109.37C558.00 109.30 558.38 108.70 558.85 108.04C559.31 107.38 559.88 106.51 560.10 106.11C560.61 105.21 561.13 104.41 562.19 102.89C562.63 102.25 563.00 101.67 563.00 101.60C563.00 101.53 563.21 101.17 563.46 100.80C564.69 99.00 566.00 96.97 566.00 96.89C566.00 96.83 566.51 96.02 567.13 95.08C567.75 94.14 568.37 93.21 568.50 93.00C568.63 92.79 569.47 91.52 570.37 90.16C571.27 88.81 572.00 87.66 572.00 87.61C572.00 87.52 573.07 85.85 573.43 85.38C573.54 85.24 573.95 84.62 574.35 84.00C574.75 83.38 575.29 82.57 575.54 82.20C575.79 81.83 576.00 81.47 576.00 81.40C576.00 81.34 576.48 80.57 577.06 79.68C577.65 78.80 578.74 77.10 579.50 75.90C580.26 74.70 581.39 72.91 582.03 71.92C582.66 70.93 583.60 69.45 584.12 68.62C584.64 67.80 585.28 66.82 585.53 66.45C585.79 66.08 586.00 65.70 586.00 65.62C586.00 65.55 586.21 65.17 586.47 64.80C586.72 64.43 587.35 63.45 587.87 62.62C590.95 57.70 594.14 54.52 597.62 52.91C603.58 50.17 610.65 50.12 616.38 52.80C619.52 54.27 623.25 57.49 624.69 59.98C625.05 60.61 625.70 61.63 626.13 62.25C626.55 62.87 627.78 64.78 628.85 66.50C631.11 70.10 631.56 70.82 632.90 72.87C633.44 73.69 633.93 74.48 634.00 74.62C634.07 74.76 635.03 76.23 636.13 77.89C637.23 79.55 638.52 81.56 639.00 82.35C639.48 83.15 641.04 85.56 642.46 87.71C643.89 89.86 645.51 92.41 646.07 93.38C647.01 94.98 647.83 96.27 652.37 103.25C653.22 104.56 654.35 106.34 654.89 107.20C655.43 108.07 656.44 109.62 657.12 110.65C659.26 113.84 660.67 116.05 661.87 118.08C662.51 119.16 664.11 121.69 665.43 123.71C669.22 129.52 670.34 131.25 671.62 133.25C673.22 135.75 674.42 137.60 677.58 142.39C680.84 147.32 681.20 148.10 681.40 150.78C681.66 154.20 680.73 157.03 678.65 159.05C677.26 160.42 677.15 160.50 675.53 161.34C674.33 161.97 673.80 162.06 670.53 162.26C665.89 162.55 659.59 162.55 656.39 162.26C653.48 162.00 651.58 161.33 649.63 159.87C647.89 158.57 647.16 157.62 644.70 153.51C643.59 151.65 641.16 147.82 639.31 145.00C637.45 142.18 635.68 139.48 635.37 139.00C633.10 135.45 632.02 133.74 631.51 132.88C631.19 132.32 630.68 131.48 630.37 131.00C630.06 130.52 629.27 129.28 628.62 128.25C627.97 127.22 626.91 125.58 626.28 124.62C625.64 123.65 624.99 122.64 624.83 122.37C623.11 119.53 619.99 114.66 619.54 114.11C619.42 113.96 619.17 113.57 619.00 113.23C618.82 112.90 618.10 111.72 617.38 110.62C615.80 108.18 614.57 106.26 613.61 104.68C611.30 100.93 607.68 95.61 607.39 95.55C607.00 95.46 606.91 95.58 604.53 99.25C602.07 103.06 601.23 104.38 599.88 106.62C599.21 107.72 597.19 110.88 595.38 113.62C593.57 116.38 591.54 119.53 590.88 120.62C590.21 121.72 588.42 124.54 586.89 126.88C585.37 129.22 583.99 131.36 583.83 131.63C582.61 133.65 580.61 136.79 579.13 139.00C578.16 140.44 577.04 142.19 576.64 142.88C575.98 144.01 573.95 147.18 571.12 151.50C570.53 152.39 569.51 154.08 568.84 155.25C566.85 158.72 563.83 161.20 560.57 162.04C559.14 162.42 542.68 162.49 541.00 162.13ZM713.73 162.00C711.27 161.69 708.57 159.71 707.37 157.34L706.62 155.88L706.56 107.38C706.49 54.05 706.39 57.61 707.96 55.50C709.34 53.65 710.72 52.71 713.44 51.75C714.75 51.29 715.51 51.25 723.53 51.25C731.84 51.25 732.27 51.27 733.67 51.80C736.37 52.81 737.90 54.14 739.20 56.60L739.88 57.88L739.88 106.88L739.88 155.88L739.20 157.14C738.18 159.04 736.73 160.54 735.09 161.38L733.62 162.12L724.38 162.15C719.29 162.16 714.50 162.10 713.73 162.00ZM414.12 161.60C413.57 161.39 412.90 161.15 412.62 161.07C411.23 160.66 408.79 158.43 407.76 156.62C406.77 154.90 406.52 153.21 406.51 148.25C406.50 141.85 406.92 140.52 409.81 137.67C411.47 136.03 413.25 135.10 415.42 134.74C416.29 134.60 430.56 134.50 451.02 134.50C479.73 134.50 485.36 134.44 486.35 134.15C487.87 133.69 489.52 132.41 490.41 131.00C491.06 129.98 491.12 129.67 491.11 127.74C491.10 125.94 491.01 125.44 490.51 124.61C489.77 123.38 488.91 122.52 487.62 121.74L486.62 121.12L461.12 120.99C436.24 120.85 435.56 120.83 432.88 120.30C430.15 119.76 427.32 119.02 425.88 118.46C420.91 116.55 417.58 114.39 413.87 110.65C411.01 107.77 409.87 106.26 408.50 103.50C408.06 102.61 407.60 101.68 407.48 101.45C407.27 101.04 406.40 98.40 405.62 95.79C404.88 93.28 404.68 90.34 404.84 83.88C404.92 80.44 405.11 77.17 405.26 76.62C405.41 76.08 405.69 74.89 405.88 74.00C406.06 73.11 406.39 72.04 406.61 71.62C406.82 71.21 407.00 70.70 407.00 70.49C407.00 70.28 407.15 69.89 407.34 69.62C407.53 69.35 407.77 68.84 407.87 68.50C408.54 66.33 412.55 60.89 415.26 58.50C419.07 55.14 422.07 53.58 428.00 51.87C433.03 50.41 431.66 50.46 470.99 50.49C510.01 50.52 508.39 50.46 511.25 51.81C514.44 53.32 516.16 55.16 517.38 58.40C517.96 59.96 518.00 60.35 518.00 64.82C518.00 69.29 517.96 69.70 517.36 71.45C517.00 72.48 516.45 73.74 516.13 74.25C515.37 75.44 512.92 77.62 511.63 78.25C508.93 79.55 510.66 79.49 474.70 79.50C450.79 79.50 440.90 79.58 439.95 79.78C437.60 80.28 435.62 82.07 434.83 84.41C434.41 85.63 434.48 87.82 434.99 89.54C435.35 90.76 437.05 92.41 438.75 93.19L440.12 93.83L467.38 93.99C492.15 94.14 494.78 94.19 496.38 94.59C502.75 96.18 506.76 98.18 510.89 101.82C512.53 103.27 516.00 107.22 516.00 107.65C516.00 107.75 516.15 108.01 516.34 108.23C517.50 109.58 519.51 114.53 520.42 118.25C521.09 121.00 521.09 133.23 520.42 136.00C518.68 143.26 517.66 145.62 514.52 149.62C511.38 153.63 509.13 155.85 506.88 157.17C505.16 158.18 501.41 159.86 499.78 160.36C498.73 160.68 497.26 161.15 496.50 161.40C495.19 161.84 493.32 161.87 455.12 161.92C419.66 161.98 415.01 161.94 414.12 161.60Z"/>
  <path id="tagline" fill="#0C6A64" d="M248.44 197.73C247.92 197.43 247.88 196.80 248.33 196.12C248.66 195.62 249.27 194.06 251.64 187.67C252.67 184.87 255.12 185.28 255.97 188.38C256.12 188.93 256.88 190.89 257.65 192.75C259.35 196.85 259.52 197.63 258.74 197.88C258.01 198.11 256.99 197.34 256.63 196.28C256.25 195.14 255.81 194.97 253.45 195.05L251.39 195.12L250.81 196.12C250.50 196.68 250.16 197.25 250.06 197.40C249.78 197.84 248.92 198.01 248.44 197.73ZM281.05 197.49C280.78 197.20 280.42 196.44 280.25 195.79C280.09 195.15 279.75 193.89 279.50 193.00C279.25 192.11 278.97 191.07 278.89 190.69C278.81 190.31 278.63 190.00 278.50 190.00C278.12 190.00 277.84 190.73 277.13 193.69C276.75 195.24 276.22 196.78 275.95 197.13C275.27 197.99 274.23 197.96 273.71 197.06C273.31 196.38 272.47 193.60 271.88 191.00C271.70 190.24 271.36 188.93 271.12 188.07C270.75 186.80 270.73 186.45 270.99 186.13C271.41 185.63 271.82 185.65 272.48 186.19C272.98 186.60 273.60 188.65 274.17 191.75C274.33 192.64 274.49 192.89 274.93 192.95C275.34 193.01 275.51 192.88 275.60 192.45C276.08 190.15 276.33 189.23 276.51 189.12C276.63 189.05 276.80 188.47 276.89 187.84C277.16 186.08 278.24 185.28 279.27 186.07C279.74 186.43 280.72 189.53 281.01 191.60C281.25 193.30 281.56 193.75 282.19 193.34C282.47 193.17 282.72 192.47 282.90 191.35C283.05 190.40 283.30 189.29 283.45 188.88C283.59 188.46 283.78 187.70 283.87 187.19C283.96 186.65 284.22 186.15 284.49 186.00C285.76 185.32 286.34 186.06 285.88 187.75C285.71 188.37 285.10 190.68 284.53 192.88C283.93 195.14 283.29 197.05 283.05 197.29C282.31 198.00 281.59 198.08 281.05 197.49ZM293.38 197.59C291.31 196.50 290.00 194.35 290.00 192.07C290.01 189.45 291.78 186.69 293.91 185.99C294.40 185.83 295.57 185.74 296.51 185.79C297.93 185.87 298.41 186.02 299.30 186.65C302.90 189.20 302.48 195.51 298.57 197.47C297.27 198.13 294.52 198.19 293.38 197.59ZM307.14 197.61C306.81 197.28 306.75 196.42 306.75 192.12C306.75 189.32 306.86 186.74 307.00 186.38L307.25 185.72L310.37 185.81C313.82 185.91 314.31 186.10 315.44 187.75C316.39 189.15 316.00 191.73 314.77 192.12C313.86 192.41 313.92 193.15 315.00 195.00C316.07 196.84 316.16 197.39 315.46 197.83C314.70 198.31 313.86 197.66 313.05 195.95C312.02 193.80 311.46 193.25 310.27 193.25C309.11 193.25 309.00 193.46 309.00 195.63C309.00 197.23 308.64 198.00 307.88 198.00C307.69 198.00 307.36 197.82 307.14 197.61ZM328.81 197.58C328.33 197.35 327.57 196.51 326.84 195.41C325.51 193.40 325.11 193.00 324.44 193.00C323.81 193.00 323.23 194.44 323.29 195.86C323.35 197.56 322.35 198.35 321.45 197.31C321.13 196.95 321.07 195.99 321.09 191.51L321.12 186.14L321.84 185.89C322.45 185.67 322.62 185.72 323.04 186.23C323.43 186.72 323.50 187.15 323.45 188.60C323.38 190.25 323.41 190.37 323.88 190.30C324.15 190.26 324.58 189.97 324.83 189.67C326.88 187.19 328.10 186.02 328.77 185.87C329.46 185.72 330.25 186.04 330.25 186.47C330.25 186.55 329.51 187.41 328.61 188.38C326.57 190.55 326.31 191.12 326.94 191.99C327.19 192.34 327.79 193.19 328.25 193.88C328.72 194.56 329.35 195.41 329.65 195.75C330.93 197.23 330.41 198.36 328.81 197.58ZM337.12 197.82C336.57 197.77 335.98 197.54 335.81 197.31C335.59 197.02 335.50 195.48 335.50 191.72C335.50 187.34 335.56 186.47 335.89 186.14C336.39 185.64 336.57 185.65 337.22 186.19C337.72 186.60 337.75 186.89 337.81 191.25L337.88 195.88L340.00 195.94C342.85 196.02 343.25 196.13 343.25 196.83C343.25 197.83 342.80 198.00 340.39 197.96C339.14 197.93 337.68 197.87 337.12 197.82ZM349.72 197.50C349.22 197.23 348.50 196.65 348.12 196.20C346.95 194.81 346.68 193.87 346.80 191.48C346.89 189.50 346.97 189.23 347.76 188.13C349.13 186.22 349.68 185.93 352.06 185.81C353.85 185.73 354.28 185.79 355.25 186.29C357.43 187.42 358.61 190.30 358.12 193.30C357.83 195.10 356.57 196.72 354.83 197.52C353.42 198.16 350.95 198.15 349.72 197.50ZM371.81 197.74C371.48 197.61 371.04 197.04 370.77 196.42C370.51 195.81 370.11 195.25 369.88 195.16C369.65 195.07 368.51 195.00 367.34 195.00L365.22 195.00L364.84 195.94C364.30 197.25 363.78 197.75 362.99 197.75C362.09 197.75 361.92 197.07 362.51 195.83C363.31 194.16 366.00 187.24 366.00 186.87C366.00 186.67 366.28 186.33 366.61 186.11C367.51 185.52 368.65 185.84 369.19 186.83C369.59 187.57 369.82 188.15 370.86 191.00C371.09 191.62 371.42 192.46 371.61 192.88C371.79 193.29 372.03 193.91 372.13 194.25C372.24 194.59 372.53 195.27 372.78 195.75C373.32 196.76 373.37 197.28 372.95 197.70C372.60 198.05 372.57 198.05 371.81 197.74ZM380.08 197.83C379.37 197.77 378.68 197.59 378.54 197.43C378.41 197.26 378.26 194.74 378.21 191.68C378.14 187.05 378.18 186.19 378.50 185.98C378.72 185.83 380.07 185.76 381.76 185.81C384.26 185.89 384.78 185.98 385.60 186.48C387.58 187.71 388.50 189.42 388.50 191.89C388.50 196.23 385.60 198.28 380.08 197.83ZM402.14 197.61C401.81 197.28 401.75 196.43 401.75 192.17C401.76 189.40 401.82 186.87 401.91 186.56C402.03 186.11 402.24 186.00 402.98 186.00C404.05 186.00 404.42 186.26 405.29 187.62C405.64 188.18 406.32 189.24 406.80 190.00C407.28 190.76 407.82 191.66 407.99 192.00C408.31 192.62 409.21 193.48 409.56 193.49C409.66 193.50 409.77 191.84 409.81 189.81L409.88 186.12L410.75 186.12L411.62 186.12L411.75 191.38C411.82 194.26 411.79 196.88 411.69 197.19C411.55 197.65 411.33 197.75 410.51 197.75C409.63 197.75 409.43 197.63 408.73 196.69C407.60 195.15 404.75 190.69 404.75 190.45C404.75 190.34 404.58 190.25 404.38 190.25C404.06 190.25 404.00 190.79 404.00 193.62C404.00 196.67 403.95 197.05 403.50 197.50C402.90 198.10 402.66 198.12 402.14 197.61ZM434.25 197.75C433.94 197.56 433.86 196.66 433.80 192.79C433.72 188.10 433.72 188.07 433.13 187.80C432.80 187.65 432.15 187.59 431.69 187.66C430.33 187.88 429.39 186.59 430.48 186.01C430.96 185.75 437.05 185.69 438.81 185.92C439.59 186.02 439.75 186.14 439.75 186.62C439.75 187.31 439.34 187.50 437.78 187.50C437.13 187.50 436.47 187.63 436.30 187.80C436.09 188.01 436.00 189.44 436.00 192.61C435.99 195.09 435.91 197.25 435.81 197.40C435.53 197.83 434.67 198.02 434.25 197.75ZM445.10 197.81C444.42 197.36 444.32 196.47 444.40 191.88C444.45 189.26 444.55 186.88 444.62 186.58C444.80 185.82 445.66 185.59 446.27 186.14C446.72 186.55 446.75 186.96 446.75 191.90C446.75 197.12 446.74 197.23 446.19 197.61C445.57 198.05 445.48 198.07 445.10 197.81ZM455.98 197.63C455.48 197.36 455.14 196.71 454.45 194.70C453.96 193.29 453.15 191.01 452.65 189.64C451.57 186.67 451.52 186.07 452.35 185.86C453.51 185.57 453.82 186.05 455.12 190.11C456.06 193.02 456.48 194.00 456.78 194.00C457.33 194.00 457.66 193.55 457.87 192.50C458.16 191.10 459.40 187.59 459.92 186.70C460.29 186.06 460.57 185.88 461.14 185.88C461.71 185.88 461.89 186.00 461.95 186.44C462.02 186.92 461.29 189.15 460.49 190.88C460.24 191.44 459.63 193.10 459.13 194.65C458.67 196.05 457.79 197.75 457.52 197.75C457.39 197.75 457.14 197.80 456.96 197.87C456.77 197.93 456.34 197.82 455.98 197.63ZM468.88 197.80C468.06 197.76 467.30 197.59 467.20 197.42C467.09 197.26 467.01 194.63 467.00 191.59C467.00 186.77 467.05 186.03 467.40 185.90C467.61 185.82 469.23 185.75 471.00 185.75C474.50 185.75 475.00 185.84 475.00 186.48C475.00 187.29 474.45 187.50 472.26 187.50C469.68 187.50 469.00 187.84 469.00 189.12C469.00 190.68 469.10 190.75 471.34 190.75C473.64 190.76 474.08 190.93 473.96 191.78C473.88 192.35 473.77 192.38 471.76 192.45C470.60 192.49 469.50 192.64 469.32 192.79C468.97 193.08 468.88 195.18 469.20 195.68C469.33 195.88 470.33 196.01 472.13 196.05L474.88 196.12L474.95 196.94C475.00 197.38 474.94 197.77 474.83 197.79C474.41 197.86 470.32 197.87 468.88 197.80ZM495.73 197.27C495.33 196.87 495.00 196.37 495.00 196.16C495.00 195.30 494.27 195.00 492.22 195.00C490.44 195.00 490.16 195.06 489.61 195.61C489.28 195.95 489.00 196.38 489.00 196.57C489.00 197.08 488.17 197.75 487.56 197.75C486.72 197.75 486.64 196.90 487.36 195.34C487.71 194.57 488.00 193.82 488.00 193.68C488.00 193.40 489.02 190.71 489.64 189.34C489.84 188.90 490.00 188.47 490.00 188.36C490.00 188.26 490.25 187.69 490.55 187.08C491.15 185.89 491.88 185.52 492.95 185.90C493.42 186.07 493.76 186.57 494.29 187.88C494.68 188.84 495.00 189.73 495.00 189.85C495.00 189.97 495.21 190.53 495.47 191.10C495.73 191.66 496.18 192.80 496.48 193.62C496.78 194.45 497.19 195.44 497.39 195.83C498.04 197.11 497.76 198.00 496.71 198.00C496.57 198.00 496.13 197.67 495.73 197.27ZM503.05 197.70C502.84 197.49 502.75 195.86 502.75 191.97C502.75 187.20 502.80 186.48 503.17 186.11C503.53 185.75 504.01 185.71 506.43 185.80C508.77 185.89 509.37 185.99 509.94 186.41C511.11 187.28 511.75 188.45 511.75 189.72C511.75 192.06 510.28 193.25 507.42 193.25C505.32 193.25 505.00 193.55 505.00 195.46C505.00 197.51 504.01 198.66 503.05 197.70ZM517.25 197.76C516.93 197.56 516.88 196.62 516.88 191.88C516.88 187.14 516.94 186.19 517.25 185.97C517.48 185.81 518.70 185.77 520.47 185.85C523.70 186.00 524.56 186.37 525.49 188.03C526.14 189.19 526.14 190.07 525.48 191.22C524.64 192.69 523.92 193.07 521.56 193.26C520.17 193.37 519.38 193.54 519.23 193.77C519.11 193.97 519.01 194.77 519.00 195.56C519.00 196.66 518.88 197.12 518.50 197.50C517.94 198.06 517.78 198.09 517.25 197.76ZM532.62 197.75L531.12 197.62L531.06 191.97C530.98 185.83 531.05 185.52 532.34 185.84C533.19 186.06 533.30 186.74 533.22 191.44C533.19 193.73 533.26 195.61 533.40 195.75C533.53 195.88 534.81 196.01 536.25 196.05C538.80 196.12 538.88 196.14 538.96 196.72C539.00 197.04 538.91 197.44 538.76 197.59C538.46 197.89 535.28 197.97 532.62 197.75ZM554.43 197.39C553.77 197.07 553.02 196.62 552.75 196.38C551.06 194.85 550.62 191.22 551.83 188.83C553.08 186.37 555.34 185.25 558.01 185.75C559.43 186.02 559.58 186.09 560.56 186.97C561.36 187.68 561.46 188.62 560.77 188.99C560.11 189.34 560.13 189.35 559.13 188.47C557.29 186.85 554.99 187.40 553.81 189.74C553.12 191.11 553.11 191.85 553.75 193.55C554.38 195.22 555.42 196.00 557.04 196.00C557.93 196.00 558.39 195.84 559.14 195.24C560.16 194.43 560.66 194.38 561.08 195.04C561.54 195.77 560.89 196.71 559.44 197.38C557.76 198.17 556.06 198.17 554.43 197.39ZM575.14 197.67C574.87 197.47 574.42 196.82 574.14 196.22L573.62 195.12L571.40 195.05C568.96 194.97 568.44 195.20 568.13 196.45C567.88 197.42 567.53 197.75 566.72 197.75C565.82 197.75 565.49 196.80 566.08 195.90C566.30 195.58 566.87 194.26 567.37 192.97C567.86 191.68 568.35 190.45 568.47 190.25C568.59 190.04 568.86 189.24 569.09 188.47C569.64 186.56 570.32 185.75 571.35 185.75C572.39 185.75 572.73 186.16 573.61 188.50C575.07 192.37 576.08 194.91 576.58 195.95C576.98 196.76 577.04 197.13 576.84 197.45C576.49 198.01 575.74 198.10 575.14 197.67ZM583.49 197.49C583.02 197.02 582.99 196.70 583.01 192.59C583.03 189.82 582.94 188.09 582.78 187.93C582.64 187.79 581.97 187.66 581.29 187.64C579.97 187.62 579.25 187.21 579.25 186.47C579.25 185.80 579.95 185.71 584.45 185.79C588.70 185.88 589.40 186.06 588.84 186.94C588.66 187.23 588.13 187.42 587.22 187.50C586.48 187.57 585.73 187.72 585.56 187.83C585.33 187.98 585.25 189.19 585.25 192.46C585.25 196.06 585.18 196.99 584.86 197.44C584.38 198.13 584.14 198.14 583.49 197.49ZM604.61 197.43C601.79 195.89 600.87 194.32 601.05 191.38C601.22 188.87 602.43 187.01 604.50 186.08C605.58 185.60 608.14 185.59 609.28 186.07C611.18 186.87 612.75 189.50 612.75 191.88C612.75 193.33 611.92 195.49 611.06 196.30C609.22 198.02 606.56 198.49 604.61 197.43ZM625.62 197.72C625.03 197.43 624.80 197.10 621.33 191.43C620.03 189.30 619.76 189.70 619.83 193.68C619.88 197.09 619.69 197.75 618.63 197.75C618.25 197.75 617.98 197.57 617.88 197.25C617.79 196.98 617.71 194.46 617.69 191.64C617.67 187.79 617.74 186.44 617.99 186.14C618.50 185.52 619.58 185.66 620.29 186.44C621.17 187.41 623.72 191.34 624.02 192.21C624.30 193.01 625.39 193.69 625.58 193.17C625.64 193.01 625.63 191.62 625.56 190.10C625.49 188.57 625.50 187.03 625.59 186.68C625.80 185.84 626.64 185.57 627.27 186.14C627.72 186.55 627.75 186.96 627.75 191.90C627.75 197.12 627.74 197.23 627.19 197.61C626.56 198.05 626.33 198.07 625.62 197.72ZM657.25 197.35C655.21 196.20 655.14 195.99 655.05 190.88C654.97 186.83 655.01 186.36 655.41 186.07C655.99 185.65 656.38 185.67 656.86 186.14C657.18 186.47 657.25 187.23 657.25 190.49L657.25 194.45L657.98 195.22C658.62 195.91 658.86 196.00 660.08 196.00C662.44 196.00 662.72 195.44 662.92 190.24C663.06 186.66 663.13 186.20 663.55 185.97C663.81 185.84 664.24 185.79 664.51 185.88C664.97 186.03 665.00 186.28 665.00 190.59C665.00 195.08 664.99 195.17 664.37 196.01C662.88 198.04 659.57 198.66 657.25 197.35ZM678.17 197.25C677.68 196.82 677.20 196.22 677.10 195.92C677.01 195.62 676.63 194.93 676.26 194.38C675.89 193.82 675.17 192.61 674.65 191.67C674.13 190.74 673.58 190.02 673.42 190.07C673.22 190.13 673.08 191.29 673.00 193.55C672.87 197.07 672.66 197.75 671.71 197.75C671.45 197.75 671.15 197.50 671.04 197.19C670.93 196.88 670.81 194.36 670.77 191.60C670.72 187.21 670.76 186.52 671.12 186.16C671.98 185.30 673.20 185.83 674.32 187.55C676.16 190.38 677.00 191.77 677.00 192.02C677.00 192.43 678.23 193.54 678.50 193.37C678.65 193.29 678.75 191.83 678.75 189.92C678.76 188.11 678.85 186.48 678.97 186.29C679.09 186.10 679.49 186.00 679.90 186.04L680.62 186.12L680.69 191.62C680.72 194.65 680.66 197.26 680.56 197.42C680.45 197.58 680.08 197.78 679.72 197.87C679.20 198.00 678.87 197.87 678.17 197.25ZM689.81 197.74C689.16 197.48 689.20 197.80 689.25 192.55C689.28 189.69 689.20 188.37 688.99 188.11C688.80 187.89 688.23 187.75 687.51 187.75C686.68 187.75 686.20 187.61 685.91 187.29C684.79 186.05 685.69 185.75 690.47 185.75C693.77 185.75 694.53 185.82 694.86 186.14C695.66 186.95 694.46 187.94 693.05 187.64C692.55 187.53 692.21 187.63 691.81 188.00C691.27 188.50 691.25 188.70 691.25 192.87C691.25 196.49 691.18 197.28 690.86 197.61C690.64 197.82 690.44 197.99 690.42 197.98C690.40 197.98 690.12 197.87 689.81 197.74ZM700.75 197.82C700.54 197.74 700.29 197.55 700.19 197.40C700.09 197.25 700.01 194.62 700.00 191.57L700.00 186.01L700.66 185.84C702.07 185.49 702.12 185.67 702.19 191.69C702.25 196.46 702.21 197.26 701.86 197.60C701.44 198.02 701.34 198.04 700.75 197.82ZM727.75 197.78L727.12 197.60L727.06 191.92L726.99 186.24L727.68 185.98C728.77 185.56 734.71 185.78 735.00 186.24C735.15 186.49 735.09 186.76 734.82 187.07C734.47 187.44 734.04 187.51 732.20 187.48C730.81 187.45 729.87 187.55 729.64 187.74C729.13 188.16 728.93 189.30 729.23 190.08C729.48 190.73 729.55 190.75 731.45 190.75C733.69 190.75 734.57 191.14 734.10 191.92C733.88 192.28 733.40 192.40 731.80 192.50C730.63 192.57 729.64 192.76 729.45 192.95C728.99 193.41 729.03 195.46 729.50 195.76C729.71 195.89 730.91 195.99 732.17 196.00C733.43 196.00 734.64 196.07 734.85 196.15C735.32 196.33 735.38 197.27 734.95 197.70C734.62 198.03 728.87 198.09 727.75 197.78ZM416.74 197.36C416.47 197.04 416.55 196.67 417.18 195.18C417.61 194.19 418.03 193.15 418.13 192.88C418.23 192.60 418.59 191.64 418.93 190.75C419.26 189.86 419.71 188.68 419.91 188.14C420.51 186.56 421.20 185.75 421.96 185.75C422.92 185.75 423.68 186.37 423.88 187.31C424.04 188.08 424.20 188.49 425.47 191.32C425.76 191.98 426.00 192.65 426.00 192.82C426.00 192.99 426.15 193.41 426.33 193.75C426.98 195.00 427.57 196.95 427.42 197.34C427.05 198.31 425.00 197.40 425.00 196.27C425.00 195.27 424.35 195.00 422.00 195.00C419.66 195.00 419.00 195.27 419.00 196.25C419.00 196.74 417.90 197.75 417.37 197.75C417.20 197.75 416.92 197.58 416.74 197.36ZM544.05 197.45C543.84 197.24 543.75 195.61 543.75 191.71C543.75 186.58 543.78 186.25 544.23 186.01C544.55 185.84 544.93 185.83 545.36 185.99L546.00 186.24L546.00 191.60C546.00 194.55 545.93 197.14 545.85 197.35C545.67 197.82 544.48 197.88 544.05 197.45ZM594.01 197.27C593.70 196.68 593.66 186.78 593.97 186.29C594.09 186.09 594.52 186.00 595.03 186.04L595.88 186.12L595.95 191.38C595.98 194.26 595.95 196.88 595.88 197.19C595.70 197.93 594.39 197.98 594.01 197.27ZM640.90 197.35C640.66 196.73 640.73 186.67 640.98 186.28C641.24 185.86 644.44 185.63 646.50 185.88C647.66 186.02 648.02 186.20 648.78 187.00C649.30 187.55 649.76 188.33 649.85 188.83C650.05 189.90 649.48 191.46 648.61 192.22C647.81 192.91 647.84 193.18 648.88 195.18C650.00 197.34 650.01 197.75 648.91 197.75C647.90 197.75 647.54 197.37 646.52 195.26C645.63 193.41 645.45 193.26 644.21 193.25C643.14 193.25 643.00 193.49 643.00 195.41C643.00 196.17 642.88 197.00 642.74 197.27C642.42 197.87 641.12 197.93 640.90 197.35ZM708.30 197.45C708.09 197.24 708.00 195.64 708.00 191.84C708.00 185.96 708.05 185.75 709.59 185.75C710.74 185.75 711.43 186.35 711.85 187.70C712.06 188.34 712.49 189.55 712.82 190.38C713.16 191.20 713.62 192.41 713.86 193.07C714.10 193.73 714.42 194.24 714.56 194.19C714.71 194.14 715.14 193.26 715.51 192.24C716.15 190.50 716.84 188.75 717.65 186.81C717.97 186.05 718.07 186.00 719.24 186.00C720.21 186.00 720.54 186.10 720.74 186.48C720.90 186.77 721.00 189.03 721.00 192.06C721.00 197.42 720.93 197.75 719.86 197.75C718.83 197.75 718.66 197.20 718.83 194.30C718.99 191.73 718.89 190.50 718.52 190.50C718.27 190.50 717.35 192.49 717.13 193.50C717.03 193.98 716.67 194.99 716.33 195.74C715.40 197.79 714.53 198.25 713.58 197.19C713.01 196.55 712.14 194.55 711.87 193.25C711.64 192.15 710.82 190.50 710.50 190.50C710.07 190.50 709.93 191.76 710.06 194.36C710.13 195.77 710.09 197.10 709.96 197.33C709.69 197.82 708.73 197.88 708.30 197.45ZM353.80 195.84C354.04 195.77 354.60 195.26 355.05 194.69C355.79 193.75 355.86 193.52 355.86 191.89C355.85 189.59 355.09 188.27 353.41 187.62C352.32 187.21 352.26 187.21 351.17 187.75C349.60 188.54 349.00 189.70 349.00 191.93C349.00 193.47 349.09 193.80 349.75 194.70C350.74 196.08 351.80 196.38 353.80 195.84ZM297.90 195.45C299.54 194.32 300.00 191.68 298.93 189.50C298.26 188.15 296.52 187.07 295.44 187.34C294.51 187.57 293.24 188.71 292.84 189.67C292.43 190.65 292.43 192.52 292.83 193.81C293.46 195.81 296.12 196.67 297.90 195.45ZM384.23 195.56C385.70 194.81 386.07 194.07 386.07 191.79C386.07 190.05 385.99 189.68 385.47 189.04C384.72 188.10 383.95 187.74 382.37 187.57C381.43 187.48 381.03 187.54 380.80 187.82C380.41 188.28 380.23 195.38 380.60 195.75C381.01 196.16 383.30 196.04 384.23 195.56ZM609.21 195.17C611.82 192.47 610.22 187.50 606.74 187.50C604.13 187.50 602.38 191.31 603.74 193.99C604.51 195.49 605.33 196.00 606.98 196.00C608.26 196.00 608.48 195.92 609.21 195.17ZM392.88 193.26C391.96 192.24 392.77 191.81 395.31 191.95C396.88 192.04 397.00 192.08 397.00 192.62C397.00 193.48 396.51 193.73 394.81 193.70C393.70 193.69 393.16 193.56 392.88 193.26ZM255.12 192.76C255.48 192.18 253.81 188.34 253.39 188.78C253.16 189.02 252.06 192.64 252.16 192.81C252.33 193.09 254.94 193.04 255.12 192.76ZM369.12 192.76C369.30 192.47 368.69 190.30 368.21 189.53C368.03 189.24 367.76 189.00 367.61 189.00C367.27 189.00 365.92 192.42 366.13 192.75C366.32 193.07 368.92 193.08 369.12 192.76ZM423.43 192.72C423.65 192.50 423.63 192.30 423.38 191.90C423.20 191.61 422.97 190.90 422.88 190.31C422.62 188.69 421.52 188.89 421.12 190.63C421.02 191.04 420.77 191.64 420.57 191.97C420.26 192.46 420.25 192.60 420.54 192.78C421.03 193.09 423.10 193.05 423.43 192.72ZM493.66 192.61C493.75 192.40 493.64 191.81 493.43 191.30C493.21 190.79 492.97 190.06 492.88 189.67C492.63 188.48 491.95 188.93 491.30 190.74C490.99 191.62 490.79 192.49 490.86 192.67C491.05 193.17 493.47 193.12 493.66 192.61ZM572.87 192.76C572.95 192.62 572.86 192.20 572.66 191.81C572.46 191.42 572.21 190.68 572.11 190.16C571.95 189.29 571.43 188.74 571.09 189.08C571.01 189.15 570.69 189.94 570.37 190.82C569.93 192.02 569.85 192.50 570.07 192.72C570.41 193.06 572.66 193.10 572.87 192.76ZM522.67 191.26C524.99 189.85 523.86 187.50 520.86 187.50C520.17 187.50 519.47 187.63 519.30 187.80C519.13 187.97 519.00 188.77 519.00 189.62C519.00 190.48 519.13 191.28 519.30 191.45C519.77 191.92 521.77 191.81 522.67 191.26ZM508.89 190.89C509.63 190.14 509.69 188.94 509.02 188.27C508.41 187.66 506.43 187.34 505.61 187.71C505.07 187.96 505.00 188.15 505.00 189.44C505.00 190.25 505.13 191.03 505.30 191.20C505.47 191.37 506.20 191.50 506.94 191.50C508.02 191.50 508.39 191.38 508.89 190.89ZM312.83 190.96C313.57 190.57 313.74 190.27 313.75 189.31C313.75 188.26 312.62 187.50 311.05 187.50C309.29 187.50 309.00 187.78 309.00 189.49C309.00 190.43 309.11 191.00 309.31 191.08C309.92 191.33 312.29 191.25 312.83 190.96ZM647.14 190.64C647.81 189.97 647.89 189.48 647.48 188.71C646.95 187.73 644.59 187.17 643.48 187.76C643.09 187.97 643.00 188.29 643.00 189.49C643.00 190.43 643.11 191.00 643.31 191.08C643.48 191.15 644.28 191.22 645.07 191.23C646.29 191.25 646.62 191.15 647.14 190.64Z"/>
</svg>
